<?xml version="1.0" encoding="UTF-8"?>
<svg width="164" height="40" viewBox="0 0 164 40" fill="none" xmlns="http://www.w3.org/2000/svg" role="img" aria-label="FireDrive">
  <!-- Firebase fire mark (gradient) -->
  <defs>
    <linearGradient id="fd_grad" x1="6" y1="2" x2="26" y2="30" gradientUnits="userSpaceOnUse">
      <stop stop-color="#FFA000"/>
      <stop offset="0.55" stop-color="#F57C00"/>
      <stop offset="1" stop-color="#FFCA28"/>
    </linearGradient>
    <linearGradient id="fd_blue" x1="0" y1="18" x2="38" y2="18" gradientUnits="userSpaceOnUse">
      <stop stop-color="#1A73E8"/>
      <stop offset="1" stop-color="#0B6BE6"/>
    </linearGradient>
  </defs>

  <!-- Cloud outline behind flame (Google blue tones) -->
  <path d="M33 24c2.761 0 5 2.239 5 5s-2.239 5-5 5H11c-3.866 0-7-3.134-7-7 0-3.404 2.378-6.258 5.527-6.884C10.23 14.01 14.284 11 19 11c5.523 0 10 4.477 10 10 0 .343-.018.683-.053 1h4.053Z" fill="url(#fd_blue)" opacity="0.12"/>
  <path d="M10 34c-3.314 0-6-2.686-6-6 0-3.01 2.225-5.507 5.118-5.93C10.08 16.76 14.12 14 19 14c5.523 0 10 4.477 10 10 0 .345-.018.686-.054 1H33c2.209 0 4 1.791 4 4s-1.791 4-4 4H10Z" stroke="#1A73E8" stroke-opacity=".25" stroke-width="1.25"/>

  <!-- Firebase-style flame -->
  <path d="M17.2 8.5L12 20.2l4.9-3.5 3.2 6.6 4.7-13.6c.11-.31.54-.35.7-.06l3.5 6.3c.09.16.08.36-.02.5l-8.47 11.7c-.28.39-.85.4-1.15.02l-4.87-6.05L10 25.1l4.9-14.9c.09-.28.46-.31.6-.07l1.7 2.37Z" fill="url(#fd_grad)"/>
  <circle cx="28.5" cy="30" r="1.6" fill="#1A73E8" opacity=".6"/>

  <!-- Wordmark “FireDrive” -->
  <g transform="translate(44,9)">
    <path d="M0 22V0h11v3H3.6v6.3H11v3H3.6V22H0Z" fill="#0F172A"/>
    <path d="M16 22V7h3.2v2.1c.9-1.5 2.3-2.4 4.3-2.4 3.2 0 5.5 2.6 5.5 6.5 0 3.9-2.3 6.6-5.6 6.6-1.9 0-3.3-.8-4.2-2.2V22H16Zm7-3c2 0 3.3-1.6 3.3-3.9 0-2.4-1.3-4-3.3-4-1.9 0-3.2 1.6-3.2 4 0 2.3 1.3 3.9 3.2 3.9Z" fill="#0F172A"/>
    <path d="M33.4 22V7h3.2v2.1c.9-1.5 2.3-2.4 4.3-2.4 1.9 0 3.4.8 4.2 2.3 1-1.6 2.7-2.3 4.6-2.3 3 0 5 2 5 5.4V22h-3.3v-8.5c0-1.9-1-3.1-2.8-3.1s-3 1.3-3 3.4V22h-3.3v-8.5c0-1.9-1-3.1-2.8-3.1-1.8 0-3 1.3-3 3.4V22h-3.3Z" fill="#0F172A"/>
    <path d="M63.4 22V7h3.2v2.1c.9-1.5 2.3-2.4 4.3-2.4 3.2 0 5.5 2.6 5.5 6.5 0 3.9-2.3 6.6-5.6 6.6-1.9 0-3.3-.8-4.2-2.2V22h-3.2Zm7-3c2 0 3.3-1.6 3.3-3.9 0-2.4-1.3-4-3.3-4-1.9 0-3.2 1.6-3.2 4 0 2.3 1.3 3.9 3.2 3.9Z" fill="#0F172A"/>
  </g>
</svg>